<svg viewBox="0 0 24 24" xmlns="http://www.w3.org/2000/svg" xmlns:xlink="http://www.w3.org/1999/xlink" width="24.000000" height="24.000000" fill="none" customFrame="#000000">
	<path id="Shape" d="M15.4512 5.88664C15.7332 6.36761 16.2031 6.70904 16.7477 6.8286L20.0807 7.5603C21.5729 7.8879 22.1617 9.69996 21.147 10.8421L18.8806 13.3931C18.5103 13.8099 18.3308 14.3624 18.3854 14.9173L18.7195 18.3132C18.869 19.8336 17.3276 20.9536 15.9278 20.3415L12.8013 18.9744C12.2904 18.751 11.7096 18.751 11.1987 18.9744L8.0722 20.3415C6.6724 20.9536 5.13097 19.8336 5.28054 18.3132L5.61459 14.9173C5.66917 14.3624 5.48967 13.8099 5.11938 13.3931L2.85302 10.8421C1.83834 9.69996 2.42711 7.8879 3.91935 7.5603L7.25233 6.82859C7.79689 6.70904 8.26684 6.36761 8.54881 5.88664L10.2747 2.9429C11.0473 1.62493 12.9527 1.62493 13.7253 2.9429L15.4512 5.88664Z" fill="rgb(255,140.76,76.5)" fill-rule="evenodd" />
</svg>
